<?xml version="1.0" encoding="utf-8"?>
<!-- Generator: Adobe Illustrator 21.1.0, SVG Export Plug-In . SVG Version: 6.00 Build 0)  -->
<svg version="1.1" id="Layer_1" xmlns="http://www.w3.org/2000/svg" xmlns:xlink="http://www.w3.org/1999/xlink" x="0px" y="0px"
	 viewBox="0 0 21.1 40" style="enable-background:new 0 0 21.1 40;" xml:space="preserve">
<style type="text/css">
	.st0{fill:#35BCBF;}
</style>
<g>
	<path class="st0" d="M15.9,20c-1.1-1.2-2.2-2.4-3.3-3.6C8.6,12.2,4.7,8,0.7,3.8C0.1,3.1-0.1,2.4,0.1,1.6C0.4,0.7,1,0.2,1.9,0
		c0.8-0.1,1.4,0.1,2,0.7c1.9,2,3.7,4,5.6,5.9c3.6,3.8,7.2,7.7,10.8,11.5c0.3,0.3,0.5,0.6,0.7,1c0.4,0.9,0.2,1.6-0.5,2.3
		c-5,5.3-9.9,10.6-14.9,15.9c-0.6,0.6-1.2,1.2-1.7,1.9c-0.9,0.9-2.2,1-3.1,0.2c-0.9-0.8-0.9-2.2,0-3.1c3.6-3.9,7.3-7.8,11-11.7
		C13,23.1,14.4,21.6,15.9,20z"/>
</g>
</svg>
