<?xml version="1.0" encoding="utf-8"?>
<!-- Generator: Adobe Illustrator 21.1.0, SVG Export Plug-In . SVG Version: 6.00 Build 0)  -->
<svg version="1.1" id="Layer_1" xmlns="http://www.w3.org/2000/svg" xmlns:xlink="http://www.w3.org/1999/xlink" x="0px" y="0px"
	 viewBox="0 0 65 65" style="enable-background:new 0 0 65 65;" xml:space="preserve">
<style type="text/css">
	.st0{fill:#35BCBF;}
</style>
<g>
	<path class="st0" d="M32.6,0C14.4,0,0,14.7,0,32.4C0,50.5,14.5,65,32.5,65C50.4,65,65.1,50.4,65,32.5C65,14.5,50.4,0,32.6,0z
		 M32.5,61C17,61,4,48.4,4,32.4C4.1,16.8,16.9,4,32.5,4C48.3,4.1,61,16.8,61,32.6C61,48.2,48.1,61,32.5,61z"/>
	<path class="st0" d="M34.7,19.7c-0.5,0-1,0.1-1.4,0.3l-6.2,3.7c-0.3,0.2-0.5,0.4-0.7,0.7c-0.2,0.3-0.3,0.6-0.3,0.9
		c0,0.5,0.2,0.9,0.5,1.3c0.4,0.4,0.8,0.6,1.3,0.6c0.4,0,0.7-0.1,1-0.3l3.5-2.1v20.4c0,0.5,0.2,1,0.5,1.3c0.4,0.4,0.8,0.5,1.4,0.5
		c0.6,0,1.1-0.2,1.5-0.5c0.4-0.4,0.6-0.8,0.6-1.3V21.6c0-0.5-0.2-1-0.5-1.3C35.6,19.9,35.2,19.7,34.7,19.7z"/>
</g>
</svg>
