<?xml version="1.0" encoding="utf-8"?>
<!-- Generator: Adobe Illustrator 21.1.0, SVG Export Plug-In . SVG Version: 6.00 Build 0)  -->
<svg version="1.1" id="Layer_1" xmlns="http://www.w3.org/2000/svg" xmlns:xlink="http://www.w3.org/1999/xlink" x="0px" y="0px"
	 viewBox="0 0 65 65" style="enable-background:new 0 0 65 65;" xml:space="preserve">
<style type="text/css">
	.st0{fill:#35BCBF;}
</style>
<g>
	<path class="st0" d="M32.5,0C14.4,0,0,14.7,0,32.4C0,50.5,14.5,65,32.5,65C50.4,65,65.1,50.4,65,32.5C65,14.5,50.4,0,32.5,0z
		 M32.5,61C17,61,4,48.4,4,32.4C4.1,16.8,16.9,4,32.5,4C48.3,4,61,16.8,61,32.6C61,48.2,48,61,32.5,61z"/>
	<path class="st0" d="M40.6,43.8H30.3l6.2-6.4c3.4-3.7,5.1-7.1,5.1-10.2c0-1.7-0.4-3.2-1.1-4.5s-1.8-2.3-3.1-3.1s-2.9-1.1-4.8-1.1
		c-1.4,0-2.8,0.4-4.3,1.1s-2.6,1.7-3.5,2.9c-0.4,0.4-0.7,0.8-0.9,1.2c-0.2,0.3-0.3,0.6-0.3,1c0,0.5,0.2,0.9,0.6,1.2s0.9,0.5,1.3,0.5
		c0.6,0,1.1-0.3,1.6-0.9c0.6-1.1,1.3-1.9,2.3-2.5c0.9-0.6,1.9-0.9,2.9-0.9c1.5,0,2.8,0.5,3.7,1.5c1,1,1.5,2.2,1.5,3.7
		c0,2.1-1.3,4.5-3.8,7.2l-9.2,10c-0.4,0.4-0.6,0.9-0.6,1.4c0,0.6,0.2,1,0.5,1.4c0.4,0.3,0.8,0.5,1.4,0.5h14.7c0.5,0,1-0.2,1.3-0.5
		c0.4-0.3,0.5-0.8,0.5-1.3s-0.5-1.3-0.5-1.3S41.5,43.9,40.6,43.8z"/>
</g>
</svg>
