<?xml version="1.0" encoding="utf-8"?>
<!-- Generator: Adobe Illustrator 21.1.0, SVG Export Plug-In . SVG Version: 6.00 Build 0)  -->
<svg version="1.1" id="Layer_1" xmlns="http://www.w3.org/2000/svg" xmlns:xlink="http://www.w3.org/1999/xlink" x="0px" y="0px"
	 viewBox="0 0 32.1 54.3" style="enable-background:new 0 0 32.1 54.3;" xml:space="preserve">
<style type="text/css">
	.st0{fill:#35BCBF;}
</style>
<g>
	<path class="st0" d="M27.2,4.1c-5.9-5-14.6-5.4-21-1C3,5.2,1,8,0.1,11.5c-0.5,1.8,0.5,3.6,2.3,4.1c1.7,0.5,3.5-0.6,4.1-2.4
		c0.3-0.8,0.5-1.4,0.8-1.9c2.5-4.1,7.8-5.7,12.6-4c1.8,0.7,5.9,2.8,5.6,7.8c-0.2,2.7-1.2,4.5-3.1,5.8c-0.6,0.4-1.2,0.8-1.7,1.2
		l-0.6,0.4c-3.4,2.5-5.6,5.6-6.4,9.4c-0.3,1.4-0.5,2.9-0.7,4.4c-0.1,0.7-0.2,3.3-0.1,3.7c0.1,1.8,1.5,3.3,3.3,3.3c0,0,0,0,0,0
		c1.7,0,3.3-1.6,3.3-3.4l0-0.4c0-1.1,0.1-2.3,0.2-3.4c0.4-3.7,1.7-6.3,4.1-8c0.2-0.1,0.4-0.3,0.6-0.4c0.4-0.3,0.8-0.5,1.1-0.8
		c0.3-0.2,0.6-0.5,0.9-0.7c0.9-0.7,1.9-1.5,2.7-2.4c1.7-1.8,2.6-4.2,3-7.4C32.5,11.4,30.9,7.2,27.2,4.1z"/>
	<path class="st0" d="M16,46.3C16,46.3,16,46.3,16,46.3c-2.2,0-4,1.8-4,3.9c0,1.1,0.4,2.1,1.1,2.9c0.7,0.8,1.8,1.2,2.8,1.2
		c0,0,0,0,0,0c2.2,0,4-1.8,4-3.9c0-1.1-0.4-2.1-1.2-2.9C18.1,46.7,17.1,46.3,16,46.3z"/>
</g>
</svg>
