<?xml version="1.0" encoding="utf-8"?>
<!-- Generator: Adobe Illustrator 21.1.0, SVG Export Plug-In . SVG Version: 6.00 Build 0)  -->
<svg version="1.1" id="Layer_1" xmlns="http://www.w3.org/2000/svg" xmlns:xlink="http://www.w3.org/1999/xlink" x="0px" y="0px"
	 viewBox="0 0 65 65" style="enable-background:new 0 0 65 65;" xml:space="preserve">
<style type="text/css">
	.st0{fill:#35BCBF;}
</style>
<g>
	<path class="st0" d="M32.6,0C14.4,0,0,14.7,0,32.4C0,50.5,14.5,65,32.5,65C50.4,65,65.1,50.4,65,32.5C65,14.5,50.4-0.1,32.6,0z
		 M32.5,61C17,61,4,48.4,4,32.4C4.1,16.7,16.9,3.9,32.5,4c15.8,0,28.6,12.8,28.6,28.6C61,48.2,48.1,61,32.5,61z"/>
	<path class="st0" d="M37.5,30.7c-1.3-0.8-2.7-1.2-4.2-1.2l6.4-7.1c0.5-0.5,0.8-1,0.8-1.5c0-0.6-0.2-1-0.5-1.4
		c-0.4-0.4-0.9-0.6-1.5-1H25.2c-0.5,0.5-1,0.6-1.3,1c-0.4,0.3-0.5,0.8-0.5,1.3s0.2,1,0.5,1.3c0.4,0.4,0.8,0.5,1.3,0.4h9.5l-7,7.8
		c-0.2,0.3-0.4,0.6-0.5,0.8c-0.1,0.2-0.2,0.5-0.2,0.8c0,0.5,0.2,1,0.5,1.3s0.7,0.5,1.2,0.5c0.3,0,0.8-0.1,1.4-0.2
		c0.8-0.2,1.5-0.3,1.9-0.3c1.5,0,2.9,0.5,4,1.4c1.1,1,1.7,2.3,1.7,4.1c0,1.2-0.3,2.3-0.8,3.2c-0.6,0.9-1.3,1.6-2.2,2.1
		s-1.9,0.7-3,0.7c-1.7,0-3.1-0.5-4.3-1.6c-0.5-0.4-1-0.5-1.5-0.5s-1,0.2-1.3,0.7c-0.4,0.4-0.6,0.9-0.6,1.4c0,0.7,0.4,1.3,1.1,1.7
		c0.7,0.6,1.6,1,2.7,1.3s2.1,0.5,3.2,0.5c2.1,0,3.9-0.4,5.5-1.2s2.8-1.9,3.8-3.4c0.9-1.5,1.4-3.2,1.4-5.2c0-1.7-0.4-3.2-1.1-4.5
		C39.7,32.5,38.7,31.5,37.5,30.7z"/>
</g>
</svg>
