<?xml version="1.0" encoding="utf-8"?>
<!-- Generator: Adobe Illustrator 21.1.0, SVG Export Plug-In . SVG Version: 6.00 Build 0)  -->
<svg version="1.1" id="Layer_1" xmlns="http://www.w3.org/2000/svg" xmlns:xlink="http://www.w3.org/1999/xlink" x="0px" y="0px"
	 viewBox="0 0 82.1 54" style="enable-background:new 0 0 82.1 54;" xml:space="preserve">
<style type="text/css">
	.st0{fill:#35BCBF;}
</style>
<path class="st0" d="M82.1,9.2c0-5.3-3.9-9.2-9.2-9.2C51.6,0,30.4,0,9.2,0c-1,0-1.9,0.1-2.6,0.3C2.5,1.5,0,4.9,0,9.1
	C0,21,0,32.9,0,44.8c0,0.5,0,1,0.1,1.5C0.9,51,4.5,54,9.2,54l40.9,0l22.7,0c5.4,0,9.3-3.9,9.3-9.2C82.1,32.9,82.1,21.1,82.1,9.2z
	 M77.2,11.1v32.1L59,23.8L77.2,11.1z M23.7,4.8c16.3,0,32.7,0,49,0c0,0,0,0,0,0c1.4,0,2.4,0.4,3.3,1.2l-9.2,6.4
	C59.9,17.3,52.9,22.2,46,27c-2,1.4-3.7,1.9-5.6,1.7c-1.3-0.1-2.5-0.6-3.6-1.3c-8.4-5.7-16.7-11.5-25-17.2l-5.9-4
	c0.8-0.9,1.7-1.3,3-1.3c0.1,0,0.3,0,0.5,0L23.7,4.8z M27.1,26.7c0.7,0.5,1.4,1,2.1,1.5c1.6,1.1,3.2,2.2,4.8,3.3
	c4.2,2.8,8.6,3,12.7,0.7c1.9-1.1,3.8-2.4,5.5-3.6c0.8-0.5,1.6-1.1,2.3-1.6c0.1-0.1,0.3-0.2,0.4-0.3l20.6,21.8
	c-0.6,0.4-1.2,0.7-2,0.8c-0.1,0-0.2,0-0.2,0l-13.4,0c-16.9,0-33.7,0-50.6,0c0,0,0,0,0,0c-1.2,0-2.1-0.2-2.8-0.8L27.1,26.7z
	 M23.1,23.9L4.9,43.2V11.3L23.1,23.9z"/>
</svg>
