<?xml version="1.0" encoding="utf-8"?>
<!-- Generator: Adobe Illustrator 21.1.0, SVG Export Plug-In . SVG Version: 6.00 Build 0)  -->
<svg version="1.1" id="Layer_1" xmlns="http://www.w3.org/2000/svg" xmlns:xlink="http://www.w3.org/1999/xlink" x="0px" y="0px"
	 viewBox="0 0 58.1 54" style="enable-background:new 0 0 58.1 54;" xml:space="preserve">
<style type="text/css">
	.st0{fill:#35BCBF;}
</style>
<path class="st0" d="M57.8,1.8c-0.5-1-1.4-1.7-2.5-1.8c-0.8-0.1-1.8,0.1-2.7,1.3L21,46.4c-4.7-4.7-9.5-9.5-14.2-14.2l-0.4-0.4
	C6,31.4,5.6,31,5.1,30.6c-0.5-0.5-1-0.8-1.6-0.9c-1.3-0.2-2.6,0.5-3.2,1.7C-0.3,32.6,0,33.9,1,34.8l4.8,4.8
	c4.5,4.5,8.9,8.9,13.4,13.4c0.6,0.6,1.4,1,2.3,1c0.1,0,0.2,0,0.3,0c0.9-0.1,1.7-0.6,2.3-1.4c0.8-1.1,1.5-2.2,2.3-3.3L54.5,9
	c1-1.5,2.1-3,3.1-4.4C58.2,3.7,58.3,2.8,57.8,1.8z"/>
</svg>
