<svg id="Layer_1" data-name="Layer 1" xmlns="http://www.w3.org/2000/svg" viewBox="0 0 1339.94 296.92"><defs><style>.cls-1{fill:#35bcbf;}.cls-2{fill:#41506b;}</style></defs><title>LITEM_LOGO_FINAL</title><path class="cls-1" d="M148.4.4C66.61.4.06,66.94.06,148.74S66.61,297.08,148.4,297.08s148.35-66.55,148.35-148.34S230.2.4,148.4.4ZM24.79,167A116.73,116.73,0,0,1,24,135.32a414.81,414.81,0,0,1,57.61-12.48C61.73,135.47,39.85,151.13,24.79,167Zm4.74-57.17A124.56,124.56,0,0,1,41.06,84.66c17.52-4.5,108.85-25.2,215.75.92a124.47,124.47,0,0,1,12.62,29.94C169.94,79.2,68.61,99.4,29.53,109.81ZM234.26,57.34A497.7,497.7,0,0,0,64.21,56.27a124.63,124.63,0,0,1,170.05,1.06ZM148.65,274c-53,0-98.27-33.08-116.59-79.62,14.06-23.5,68.16-57.72,103.49-76.24,42.18-1.06,91.08,4,138.12,23.67.12,2.27.35,4.52.35,6.82A125.5,125.5,0,0,1,148.65,274Z" transform="translate(-0.06 -0.17)"/><path class="cls-2" d="M524,233.56V281H353V56.11A12.11,12.11,0,0,1,365.11,44H410V224H514.44A9.56,9.56,0,0,1,524,233.56Z" transform="translate(-0.06 -0.17)"/><path class="cls-1" d="M579.5,66a33.07,33.07,0,1,1,28.26-28.28A33.07,33.07,0,0,1,579.5,66Z" transform="translate(-0.06 -0.17)"/><path class="cls-2" d="M559.64,94H604V281H547V106.64A12.64,12.64,0,0,1,559.64,94Z" transform="translate(-0.06 -0.17)"/><path class="cls-2" d="M717,131v60.35c0,31.64,11.15,35.54,27.31,36.25a8.07,8.07,0,0,1,7.69,8.07v43.08c-70.32,12.39-94-23.68-94-68.86V131H630V88h28V29.72A11.72,11.72,0,0,1,669.72,18H717V88h42.57A8.43,8.43,0,0,1,768,96.43V131Z" transform="translate(-0.06 -0.17)"/><path class="cls-2" d="M1340,187.91v83.85a9.24,9.24,0,0,1-9.24,9.24H1284V187.86c0-30-10.64-45.66-44-45.66-24.23,0-43,19.73-43,44.56V281h-57V187.91c0-29.93-10.57-45.63-43.75-45.63-24.06,0-42.65,19.71-42.65,44.54-.36,23.36,0,94.18,0,94.18H996V106.16A13.16,13.16,0,0,1,1009.16,93H1053v15c.36-.36,19.72-21.17,50.39-21.17,41.63,0,65.36,16.43,78.51,38.69a90.13,90.13,0,0,1,19.35-22.27c18.26-15,41.63-18.62,66.46-15C1326.86,97.75,1340,148.12,1340,187.91Z" transform="translate(-0.06 -0.17)"/><path class="cls-2" d="M968.16,241.37c-16.29,24.25-50,39.78-84.1,39.78-57.58,0-103.8-45.08-103.8-99.64,0-55.31,44.32-100,99.25-100A101.32,101.32,0,0,1,970.06,137a14.8,14.8,0,0,1-4.53,18.68l-97.39,69.76c4.93,1.89,10.23,2.27,15.91,2.27,12.8,0,25.6-3.51,34.72-11.63a12,12,0,0,1,15.41-.89ZM836.32,194,906,144.39a43.17,43.17,0,0,0-26.52-9.09c-24.62,0-44.7,19.32-44.7,46.22A43.53,43.53,0,0,0,836.32,194Z" transform="translate(-0.06 -0.17)"/></svg>