<svg id="Layer_1" data-name="Layer 1" xmlns="http://www.w3.org/2000/svg" viewBox="0 0 987 621.73"><defs><style>.cls-1{fill:#41506b;}.cls-2{fill:#35bcbf;}</style></defs><title>LITEM_LOGO_PORTRAIT_FINAL</title><path class="cls-1" d="M171,574.22v47.44H0V396.77a12.11,12.11,0,0,1,12.11-12.11H57v180H161.44A9.56,9.56,0,0,1,171,574.22Z" transform="translate(0 0.02)"/><path class="cls-2" d="M227,406.5a33.07,33.07,0,1,1,28.26-28.28A33.07,33.07,0,0,1,227,406.5Z" transform="translate(0 0.02)"/><path class="cls-1" d="M206.64,434.67H251v187H194V447.31A12.64,12.64,0,0,1,206.64,434.67Z" transform="translate(0 0.02)"/><path class="cls-1" d="M365,471.67v60.18c0,31.64,11.15,35.54,27.31,36.25a8.07,8.07,0,0,1,7.69,8.07v43.08c-70.32,12.39-94-23.68-94-68.86V471.67H278v-43h28V370.39a11.72,11.72,0,0,1,11.72-11.72H365v70h42.57a8.43,8.43,0,0,1,8.43,8.43v34.57Z" transform="translate(0 0.02)"/><path class="cls-1" d="M987,528.58v83.85a9.24,9.24,0,0,1-9.24,9.24H931V528.53c0-30-10.64-45.66-44-45.66-24.23,0-43,19.73-43,44.56v94.23H787V528.58c0-29.93-10.57-45.63-43.75-45.63-24.06,0-42.65,19.71-42.65,44.54-.36,23.36,0,94.18,0,94.18H643V446.82a13.16,13.16,0,0,1,13.16-13.16H700v15c.36-.36,19.72-21.17,50.39-21.17,41.63,0,65.36,16.43,78.51,38.69a90.13,90.13,0,0,1,19.35-22.27c18.26-15,41.63-18.62,66.46-15C973.86,438.41,987,488.79,987,528.58Z" transform="translate(0 0.02)"/><path class="cls-1" d="M615.66,581.87c-16.29,24.25-50,39.78-84.1,39.78-57.58,0-103.8-45.08-103.8-99.64,0-55.31,44.32-100,99.25-100a101.32,101.32,0,0,1,90.55,55.52A14.8,14.8,0,0,1,613,496.2L515.64,566c4.93,1.89,10.23,2.27,15.91,2.27,12.8,0,25.6-3.51,34.72-11.63a12,12,0,0,1,15.41-.89ZM483.82,534.51l69.71-49.63A43.17,43.17,0,0,0,527,475.8c-24.62,0-44.7,19.32-44.7,46.22A43.53,43.53,0,0,0,483.82,534.51Z" transform="translate(0 0.02)"/><path class="cls-2" d="M492.5,0C410.7,0,344.15,66.53,344.15,148.32S410.7,296.67,492.5,296.67s148.35-66.55,148.35-148.34S574.3,0,492.5,0ZM368.63,166.64a116.73,116.73,0,0,1-.76-31.65,414.81,414.81,0,0,1,57.61-12.48C405.58,135.14,383.7,150.8,368.63,166.64Zm4.74-57.17A124.56,124.56,0,0,1,384.9,84.33c17.52-4.5,108.85-25.2,215.75.92a124.47,124.47,0,0,1,12.62,29.94C513.79,78.87,412.45,99.06,373.38,109.48ZM578.11,57a497.7,497.7,0,0,0-170.05-1.06A124.63,124.63,0,0,1,578.11,57ZM492.5,273.69c-53,0-98.27-33.08-116.59-79.62,14.06-23.5,68.16-57.72,103.49-76.24,42.18-1.06,91.08,4,138.12,23.67.12,2.27.35,4.52.35,6.82A125.5,125.5,0,0,1,492.5,273.69Z" transform="translate(0 0.02)"/></svg>