<svg version="1" xmlns="http://www.w3.org/2000/svg" width="5582.667" height="5582.667" viewBox="0 0 4187.000000 4187.000000"><path d="M2025.5 1.1c-219 8.9-408.4 43.6-608.5 111.4-127.3 43.2-258.8 103.3-377.8 172.6C709.8 477 438.7 756 255.6 1091.5c-17.7 32.3-52.1 101.1-66.5 132.9-71.8 158.3-122.2 317.9-153.5 485.6C.1 1900.3-8.8 2093.6 9 2286c21.8 234.7 81.5 459.2 180.1 676.6 14.4 31.8 48.8 100.6 66.5 132.9 192.9 353.4 482.5 643 835.9 835.9 32.3 17.7 101.1 52.1 132.9 66.5 158.3 71.8 317.9 122.2 485.6 153.5 220.6 41.1 445.8 46.5 668 16 202.2-27.8 395.7-83.9 584.6-169.5 31.8-14.4 100.6-48.8 132.9-66.5 353.4-192.9 643-482.5 835.9-835.9 17.7-32.3 52.1-101.1 66.5-132.9 71.8-158.3 122.2-317.9 153.5-485.6 41.1-220.6 46.5-445.8 16-668-27.8-202.2-83.9-395.7-169.5-584.6-14.4-31.8-48.8-100.6-66.5-132.9-192.9-353.4-482.5-643-835.9-835.9-52.8-28.8-124.8-63.7-181.9-88C2653.8 56.7 2370.5-.8 2089 .2c-24.5 0-53 .5-63.5.9zm118 818.9c53.8 1.9 98 5.9 149 13.5 155.5 23.3 308.1 77 444.5 156.3 214.5 124.8 389 310.4 499.4 531.1 113.4 226.6 155.8 482.1 122.1 735.1-49.9 373.5-266.4 706.9-589.5 908-169.2 105.3-362.1 168.9-562 185.4-66.6 5.5-141.9 5.5-209 0-208-17-407-84.8-583-198.6-56.4-36.5-110.6-78.3-164.5-126.7-19-17.1-67.9-66.1-85.1-85.1-68.4-75.9-123.8-153.1-172.3-240-21-37.6-48.7-95.6-65.7-137.5-72.8-180.2-103.1-373.2-88.9-568 10.7-145.8 45.5-285 105.1-420 10.7-24.3 36.9-77 49.5-99.5 48.5-86.9 103.9-164.1 172.3-240 28.8-32 77.9-79.5 114.5-110.9 123.3-105.6 267.8-187.5 422.1-239 141.2-47.2 293.3-69.3 441.5-64.1z"/><path d="M2057 1016c-181 8.7-348.6 59.2-503 151.8-57.7 34.6-120.8 81.4-168 124.5l-5.5 5 4-.6c48.4-7.8 71.5-11.4 97.5-15.1 282.4-40.6 578.5-52 871-33.6 149.4 9.5 306 27.9 450.4 53.1 15.8 2.7 29 4.8 29.3 4.6.5-.6-17.3-16.9-35.6-32.6-169.1-144.8-379.7-234.1-598.1-253.5-42.9-3.8-104.4-5.4-142-3.6zM1974.5 1438.1c-276.3 7.8-557.1 43.4-782.3 99l-9.2 2.3-6.4 11.1c-27.5 47.4-51.9 97.7-71.1 146-8.6 21.7-20.5 54.7-20.5 56.9 0 .9 6.3-.4 20.3-4.1 195.8-51.4 436.3-91.9 652.2-109.7 115.6-9.6 198.4-13 315.5-13 105.5 0 176.7 2.6 272 10 268.9 20.7 531.9 75.2 765.6 158.4 12.4 4.5 22.8 7.9 23.1 7.6 1-1-12.7-45.7-22.3-72.9-19.7-55.2-47.9-117.4-75.3-165.8l-9.4-16.6-15.6-3.7c-263.6-63-530.8-97.6-815.6-105.6-39.8-1.1-180.4-1.1-221 .1zM1994.5 1825.9c-5.2.6-9.1 2.3-28 12.5-60.6 32.6-110.5 60.6-162 90.6-294.2 171.8-531 346.5-643.1 474.5-20.7 23.7-42.1 51.7-51.5 67.6l-4 6.6 8 18.9c55 131.4 132.5 246.9 233 347.5 170 170 388.8 276.9 626.1 305.9 46.6 5.6 77.6 7.4 129.5 7.4 52 0 83.1-1.8 129.5-7.4 283.1-34.6 539.9-180.5 716.5-407.1 143.8-184.5 224.3-415.6 224.9-645.9.1-34.9-1.7-67.9-3.8-69.2-2.4-1.6-72.3-29.1-95.6-37.6-273.5-100.2-566.6-153.9-896-164.2-33.9-1.1-173.6-1.1-183.5-.1zM1515.5 1867.7c-178.2 28.4-312.1 57.1-448.1 96l-30.1 8.6-1.2 11.6c-6.1 62.2-6.5 125.5-1 185.6 2.2 25.1 7.6 69.1 8.7 71.8.6 1.5 2.1.3 9-7.2 9.6-10.5 47.1-46.6 68.7-66.2 73.8-66.7 160.8-134.6 270-210.4 20.1-13.9 101.1-67.8 125.1-83.2 14-9 14-9-1.1-6.6z"/></svg>